<svg xmlns="http://www.w3.org/2000/svg" width="207" height="15" fill="none"><path fill="#545454" d="M3.5 7.455c0-.7.17-1.336.511-1.912A3.861 3.861 0 0 1 5.386 4.17a3.679 3.679 0 0 1 1.91-.511c.606 0 1.164.13 1.676.39.515.26.941.615 1.278 1.067.337.447.546.955.626 1.521H9.33c-.086-.439-.322-.797-.71-1.074a2.197 2.197 0 0 0-1.323-.421c-.426 0-.814.104-1.163.313-.35.209-.629.488-.838.837-.209.35-.313.737-.313 1.164 0 .426.104.813.313 1.163.209.35.488.628.838.837.349.21.737.313 1.163.313.494 0 .912-.138 1.253-.415.345-.281.562-.641.652-1.08h1.547a3.491 3.491 0 0 1-.595 1.527c-.315.448-.72.802-1.214 1.061-.49.26-1.038.39-1.643.39-.699 0-1.336-.17-1.911-.51A3.862 3.862 0 0 1 4.01 9.365 3.679 3.679 0 0 1 3.5 7.455Zm3.733 6.75a6.602 6.602 0 0 1-2.62-.525 6.88 6.88 0 0 1-2.155-1.45 6.972 6.972 0 0 1-1.457-2.155 6.496 6.496 0 0 1-.518-2.62 6.65 6.65 0 0 1 .53-2.621c.354-.814.84-1.53 1.458-2.148A6.751 6.751 0 0 1 4.619 1.23 6.556 6.556 0 0 1 7.233.705 6.657 6.657 0 0 1 12 2.687a6.803 6.803 0 0 1 1.451 2.147c.35.814.527 1.687.531 2.62a6.497 6.497 0 0 1-.518 2.621A6.783 6.783 0 0 1 9.86 13.68a6.619 6.619 0 0 1-2.627.524Zm0-1.483c.729 0 1.413-.137 2.052-.41a5.287 5.287 0 0 0 2.812-2.806 5.08 5.08 0 0 0 .403-2.045 5.286 5.286 0 0 0-3.222-4.864 5.127 5.127 0 0 0-2.045-.41c-.724 0-1.404.137-2.04.41A5.255 5.255 0 0 0 3.52 3.734a5.377 5.377 0 0 0-1.138 1.681 5.206 5.206 0 0 0-.415 2.046c-.004.72.13 1.4.403 2.039.272.635.65 1.193 1.131 1.675.486.481 1.046.86 1.681 1.137.64.273 1.323.41 2.052.41ZM21.888 14v-1.15l4.321-4.73c.507-.555.925-1.036 1.253-1.445a5.35 5.35 0 0 0 .729-1.164c.162-.366.243-.75.243-1.15 0-.46-.111-.859-.333-1.196a2.156 2.156 0 0 0-.895-.78 2.901 2.901 0 0 0-1.278-.274c-.503 0-.942.104-1.317.313-.37.205-.658.492-.863.863-.2.37-.3.805-.3 1.304h-1.509c0-.767.177-1.44.531-2.02a3.686 3.686 0 0 1 1.445-1.355C24.528.892 25.216.73 25.979.73c.767 0 1.447.162 2.04.486.592.324 1.056.76 1.393 1.31.336.55.505 1.162.505 1.835 0 .481-.088.952-.262 1.412-.17.456-.47.966-.895 1.528-.422.558-1.008 1.24-1.758 2.046l-2.94 3.145v.102h6.085V14h-8.259Zm15.169.179c-.963 0-1.784-.262-2.461-.786-.678-.529-1.196-1.294-1.554-2.295-.358-1.006-.537-2.22-.537-3.643 0-1.415.18-2.623.537-3.625.363-1.005.883-1.772 1.56-2.3.682-.534 1.5-.8 2.455-.8.954 0 1.77.266 2.448.8.682.528 1.201 1.295 1.56 2.3.362 1.002.543 2.21.543 3.625 0 1.423-.18 2.637-.537 3.643-.358 1.001-.876 1.766-1.553 2.295-.678.524-1.498.786-2.461.786Zm0-1.406c.954 0 1.696-.46 2.224-1.381.529-.92.793-2.233.793-3.937 0-1.134-.122-2.1-.365-2.896-.238-.797-.584-1.404-1.035-1.822a2.286 2.286 0 0 0-1.617-.626c-.946 0-1.686.466-2.218 1.4-.533.929-.8 2.243-.8 3.944 0 1.133.12 2.096.358 2.889.24.792.582 1.395 1.03 1.809.451.413.995.62 1.63.62ZM44.037 14v-1.15l4.32-4.73a30.01 30.01 0 0 0 1.254-1.445 5.35 5.35 0 0 0 .728-1.164c.162-.366.243-.75.243-1.15 0-.46-.11-.859-.332-1.196a2.156 2.156 0 0 0-.895-.78 2.9 2.9 0 0 0-1.278-.274c-.503 0-.942.104-1.317.313-.371.205-.659.492-.863.863-.2.37-.3.805-.3 1.304h-1.51c0-.767.178-1.44.531-2.02a3.687 3.687 0 0 1 1.445-1.355C46.677.892 47.365.73 48.128.73c.767 0 1.446.162 2.039.486.592.324 1.056.76 1.393 1.31.337.55.505 1.162.505 1.835 0 .481-.087.952-.262 1.412-.17.456-.469.966-.895 1.528-.422.558-1.008 1.24-1.758 2.046l-2.94 3.145v.102h6.085V14h-8.258Zm10.898 0v-1.15l4.321-4.73c.507-.555.925-1.036 1.253-1.445.328-.414.571-.801.729-1.164.162-.366.243-.75.243-1.15 0-.46-.111-.859-.333-1.196a2.157 2.157 0 0 0-.895-.78 2.901 2.901 0 0 0-1.278-.274c-.503 0-.942.104-1.317.313-.37.205-.658.492-.863.863-.2.37-.3.805-.3 1.304h-1.509c0-.767.177-1.44.53-2.02a3.686 3.686 0 0 1 1.446-1.355C57.575.892 58.263.73 59.026.73c.767 0 1.447.162 2.04.486.591.324 1.056.76 1.393 1.31.336.55.505 1.162.505 1.835 0 .481-.088.952-.262 1.412-.17.456-.47.966-.895 1.528-.422.558-1.008 1.24-1.758 2.046l-2.94 3.145v.102h6.085V14h-8.259Zm16.728 0h-1.662L74.808.91h1.636L81.251 14H79.59L75.677 2.98h-.102L71.663 14Zm.614-5.114h6.699v1.407h-6.7V8.886ZM83.086 14V4.182h1.457v1.483h.102c.18-.486.503-.88.972-1.183a2.86 2.86 0 0 1 1.585-.454c.111 0 .25.003.416.007.166.004.292.01.377.019v1.534a4.486 4.486 0 0 0-.352-.057 3.46 3.46 0 0 0-.569-.045c-.477 0-.903.1-1.278.3-.37.196-.665.469-.882.818-.213.346-.32.74-.32 1.183V14h-1.508Zm10.387.204c-.886 0-1.664-.21-2.333-.632-.665-.422-1.185-1.012-1.56-1.77-.37-.76-.556-1.646-.556-2.66 0-1.023.185-1.915.556-2.678.375-.763.895-1.355 1.56-1.777.669-.422 1.447-.633 2.333-.633.886 0 1.662.21 2.326.633.67.422 1.19 1.014 1.56 1.777.375.763.563 1.655.563 2.678 0 1.014-.188 1.9-.563 2.66-.37.758-.89 1.348-1.56 1.77-.664.422-1.44.633-2.326.633Zm0-1.355c.673 0 1.227-.172 1.662-.517.434-.346.756-.8.965-1.362a5.213 5.213 0 0 0 .313-1.828c0-.656-.104-1.268-.313-1.834a3.092 3.092 0 0 0-.965-1.375c-.435-.35-.989-.524-1.662-.524-.674 0-1.227.175-1.662.524-.435.35-.757.808-.965 1.375a5.266 5.266 0 0 0-.314 1.834c0 .656.105 1.266.314 1.828.209.563.53 1.016.965 1.362.435.345.988.517 1.662.517Zm12.939-2.863V4.182h1.508V14h-1.508v-1.662h-.102a3.22 3.22 0 0 1-1.074 1.272c-.486.345-1.1.518-1.841.518-.614 0-1.159-.134-1.636-.403-.478-.273-.853-.682-1.125-1.227-.273-.55-.41-1.242-.41-2.077V4.18h1.509v6.137c0 .716.2 1.287.601 1.713.405.426.92.64 1.547.64.375 0 .756-.096 1.144-.288.392-.192.72-.486.984-.882.269-.397.403-.902.403-1.515Zm5.78-1.892V14h-1.509V4.182h1.458v1.534h.128a2.8 2.8 0 0 1 1.048-1.202c.469-.307 1.074-.46 1.815-.46.665 0 1.247.136 1.745.41.499.268.887.677 1.164 1.226.277.546.415 1.236.415 2.071V14h-1.508V7.864c0-.772-.201-1.373-.601-1.803-.401-.435-.951-.652-1.649-.652-.482 0-.912.104-1.292.313a2.238 2.238 0 0 0-.888.914c-.217.4-.326.887-.326 1.458Zm12.728 6.11c-.818 0-1.54-.206-2.167-.62-.626-.417-1.116-1.005-1.47-1.764-.354-.763-.531-1.664-.531-2.704 0-1.03.177-1.926.531-2.684.354-.759.846-1.345 1.477-1.758.63-.413 1.359-.62 2.186-.62.639 0 1.144.107 1.515.32.375.208.66.447.856.715.2.265.356.482.467.652h.128V.91h1.508V14h-1.457v-1.508h-.179a9.927 9.927 0 0 1-.473.677c-.205.268-.497.51-.876.722-.379.21-.884.313-1.515.313Zm.205-1.355c.605 0 1.116-.157 1.534-.473.417-.32.735-.76.952-1.323.217-.567.326-1.22.326-1.962 0-.733-.106-1.374-.319-1.924-.214-.554-.529-.984-.946-1.291-.418-.311-.934-.467-1.547-.467-.64 0-1.172.164-1.598.492-.422.324-.74.765-.953 1.323-.209.554-.313 1.177-.313 1.867 0 .699.107 1.334.32 1.905.217.566.537 1.018.958 1.355.427.332.955.498 1.586.498Zm11.819-10.534V.91h9.818v1.406h-4.117V14h-1.585V2.315h-4.116Zm13.568 5.779V14h-1.508V.91h1.508v4.806h.128a2.77 2.77 0 0 1 1.036-1.208c.464-.303 1.082-.454 1.853-.454.669 0 1.255.134 1.758.403.503.264.893.67 1.17 1.22.281.546.422 1.24.422 2.084V14h-1.509V7.864c0-.78-.202-1.383-.607-1.81-.401-.43-.957-.645-1.668-.645-.495 0-.938.104-1.33.313a2.281 2.281 0 0 0-.92.914c-.222.4-.333.887-.333 1.458Zm13.243 6.11c-.946 0-1.762-.208-2.448-.626a4.205 4.205 0 0 1-1.579-1.764c-.366-.759-.55-1.64-.55-2.646s.184-1.892.55-2.66c.371-.77.886-1.372 1.547-1.802.665-.435 1.44-.652 2.327-.652.511 0 1.016.085 1.514.256.499.17.953.447 1.362.83.409.38.735.883.978 1.51.243.626.364 1.397.364 2.313v.64h-7.568V8.297h6.034c0-.554-.111-1.048-.332-1.483a2.508 2.508 0 0 0-.933-1.029c-.401-.251-.874-.377-1.419-.377-.601 0-1.121.15-1.56.448a2.947 2.947 0 0 0-1.004 1.15c-.234.473-.351.98-.351 1.521v.87c0 .741.128 1.37.383 1.885.26.512.62.902 1.081 1.17.46.264.995.396 1.604.396.396 0 .754-.055 1.074-.166.324-.115.603-.285.837-.511.235-.23.416-.516.544-.857l1.457.41a3.23 3.23 0 0 1-.774 1.303c-.362.371-.809.66-1.342.87-.533.204-1.131.306-1.796.306ZM183.973.91h1.585v8.668c0 .895-.211 1.694-.633 2.397-.417.699-1.007 1.25-1.77 1.655-.763.4-1.658.601-2.685.601-1.027 0-1.922-.2-2.684-.6-.763-.406-1.356-.957-1.777-1.656-.418-.703-.627-1.502-.627-2.397V.909h1.585v8.54c0 .64.141 1.208.422 1.707.281.494.682.884 1.202 1.17.524.28 1.15.421 1.879.421.729 0 1.355-.14 1.879-.422a2.966 2.966 0 0 0 1.202-1.17c.281-.498.422-1.067.422-1.706V.909Zm5.031 13.193c-.316 0-.586-.113-.812-.338a1.107 1.107 0 0 1-.339-.812c0-.316.113-.586.339-.812.226-.226.496-.339.812-.339.315 0 .585.113.811.339.226.226.339.496.339.812 0 .209-.053.4-.16.575-.102.175-.24.315-.415.422a1.098 1.098 0 0 1-.575.153Zm11.221-9.92a2.008 2.008 0 0 0-.933-1.509c-.546-.358-1.215-.537-2.008-.537-.579 0-1.086.094-1.521.282-.43.187-.767.445-1.01.773a1.858 1.858 0 0 0-.358 1.119c0 .35.083.65.25.9.17.248.387.455.652.621.264.162.541.296.83.403.29.102.557.185.799.249l1.33.358c.341.09.72.213 1.138.37a5.26 5.26 0 0 1 1.208.646c.388.269.707.614.959 1.036.251.422.377.94.377 1.553 0 .707-.186 1.347-.556 1.918-.367.57-.904 1.024-1.611 1.361-.703.337-1.558.505-2.563.505-.938 0-1.75-.151-2.436-.454-.681-.302-1.218-.724-1.61-1.265-.388-.541-.608-1.17-.659-1.886h1.637c.042.494.208.903.498 1.227.294.32.665.559 1.112.716.452.154.938.23 1.458.23.605 0 1.148-.098 1.63-.294.481-.2.863-.477 1.144-.83a1.97 1.97 0 0 0 .422-1.253c0-.435-.122-.789-.365-1.062a2.665 2.665 0 0 0-.958-.664 10.13 10.13 0 0 0-1.285-.448l-1.611-.46c-1.023-.294-1.832-.714-2.429-1.26-.597-.545-.895-1.259-.895-2.14 0-.734.198-1.373.595-1.918.4-.55.937-.976 1.61-1.279.678-.306 1.434-.46 2.27-.46.843 0 1.593.151 2.25.454.656.298 1.176.707 1.559 1.227.388.52.593 1.11.614 1.77h-1.534Zm5.214 9.92c-.315 0-.586-.113-.812-.338a1.106 1.106 0 0 1-.338-.812c0-.316.112-.586.338-.812.226-.226.497-.339.812-.339.315 0 .586.113.812.339.226.226.339.496.339.812 0 .209-.054.4-.16.575a1.191 1.191 0 0 1-.416.422c-.17.102-.362.153-.575.153Z"/></svg>